  0
SECTION
  2
HEADER
  0
ENDSEC
  0
SECTION
  2
TABLES
  0
TABLE
  2
LTYPE
 70
5
  0
LTYPE
  2
CONTINUOUS
 70
0
  3
CONTINUOUS
 72
65
 73
0
 40
0.0
  0
LTYPE
  2
DASHED
 70
0
  3
DASHED
 72
65
 73
2
 40
0.75
 49
0.5
 49
-0.25
  0
LTYPE
  2
DOT
 70
0
  3
DOT
 72
65
 73
2
 40
0.25
 49
0.0
 49
-0.25
  0
LTYPE
  2
CENTRE
 70
0
  3
CENTRE
 72
65
 73
4
 40
2.0
 49
1.25
 49
-0.25
 49
0.25
 49
-0.25
  0
LTYPE
  2
DASHDOT
 70
0
  3
DASHDOT
 72
65
 73
4
 40
1.0
 49
0.5
 49
-0.25
 49
0.0
 49
-0.25
  0
ENDTAB
  0
TABLE
  2
LAYER
 70
17
  0
LAYER
  2
0
 70
0
 62
7
  6
CONTINUOUS
  0
LAYER
  2
WHITE
 70
0
 62
7
  6
CONTINUOUS
  0
LAYER
  2
BLUE
 70
0
 62
5
  6
CONTINUOUS
  0
LAYER
  2
GREEN
 70
0
 62
3
  6
CONTINUOUS
  0
LAYER
  2
CYAN
 70
0
 62
4
  6
CONTINUOUS
  0
LAYER
  2
RED
 70
0
 62
1
  6
CONTINUOUS
  0
LAYER
  2
MAGENTA
 70
0
 62
6
  6
CONTINUOUS
  0
LAYER
  2
YELLOW
 70
0
 62
2
  6
CONTINUOUS
  0
ENDTAB
  0
ENDSEC
  0
SECTION
  2
BLOCKS
  0
ENDSEC
  0
SECTION
  2
ENTITIES
  0
ARC
  8
CYAN
 10
-41843.460937936
 20
18124.5488281196
 40
78.3832248654
 50
72.6145613063
 51
92.8263346463
  0
ARC
  8
CYAN
 10
-41847.5194658819
 20
18206.7264299033
 40
3.8945359806
 50
139.6341693281
 51
272.8485299762
  0
LINE
  8
CYAN
 10
-41850.486809
 20
18209.248787
 11
-41834.238281
 21
18209.253906
  0
LINE
  8
CYAN
 10
-41834.238281
 20
18209.253906
 11
-41834.238281
 21
18212.251953
  0
LINE
  8
CYAN
 10
-41834.238281
 20
18212.251953
 11
-41850.488281
 21
18212.248047
  0
ARC
  8
CYAN
 10
-41846.9736069678
 20
18215.2298035558
 40
4.6091003147
 50
99.7695280788
 51
220.3103929429
  0
ARC
  8
CYAN
 10
-41848.5079255053
 20
18224.1189168165
 40
4.4114585572
 50
279.817785326
 51
26.4756070101
  0
ARC
  8
CYAN
 10
-41839.6167840551
 20
18228.5455191943
 40
5.5206714562
 50
85.5221098508
 51
206.4604460926
  0
ARC
  8
CYAN
 10
-41842.1884395667
 20
18195.6353827592
 40
38.5311317333
 50
27.9053775098
 51
85.5304864076
  0
ARC
  8
CYAN
 10
-41817.0317918192
 20
18208.9563791856
 40
10.0652598487
 50
252.6092407662
 51
27.9143623226
  0
LINE
  8
CYAN
 10
-42150.574219
 20
18310.939453
 11
-42159.988281
 21
18310.613281
  0
ARC
  8
CYAN
 10
-42160.0547244341
 20
18312.4905935091
 40
1.8784879522
 50
85.2814864374
 51
272.0270146503
  0
LINE
  8
CYAN
 10
-42159.900199
 20
18314.362715
 11
-42150.730469
 21
18315.208984
  0
ARC
  8
CYAN
 10
-42154.3243413813
 20
18325.8421180657
 40
11.2240571431
 50
288.6746394173
 51
334.6442412293
  0
ARC
  8
CYAN
 10
-43909.458271375
 20
18456.1994123119
 40
1770.4437879772
 50
355.6215151685
 51
0.0745983777
  0
ARC
  8
CYAN
 10
-42133.9151477873
 20
18458.9488362226
 40
5.1201521976
 50
33.8601824639
 51
184.978416773
  0
ARC
  8
CYAN
 10
-40797.94474736
 20
19355.7711936
 40
1603.9501545092
 50
213.87307214
 51
218.1648772319
  0
ARC
  8
CYAN
 10
-42049.263622294
 20
18369.3937970783
 40
10.8565265036
 50
205.9224537838
 51
268.7976310796
  0
LINE
  8
CYAN
 10
-42049.491433
 20
18358.539661
 11
-42040.191406
 21
18358.597656
  0
ARC
  8
CYAN
 10
-42040.1738707403
 20
18355.5957229876
 40
3.0019842265
 50
0.3222685315
 51
90.3346793366
  0
LINE
  8
CYAN
 10
-42037.171934
 20
18355.612608
 11
-42037.160156
 21
18353.429687
  0
LINE
  8
CYAN
 10
-42037.160156
 20
18353.429687
 11
-42047.566406
 21
18353.429687
  0
LINE
  8
CYAN
 10
-42047.566406
 20
18353.429687
 11
-42047.542969
 21
18350.429687
  0
LINE
  8
CYAN
 10
-42047.542969
 20
18350.429687
 11
-42037.140625
 21
18350.431641
  0
LINE
  8
CYAN
 10
-42037.140625
 20
18350.431641
 11
-42037.117187
 21
18346.835937
  0
ARC
  8
CYAN
 10
-42040.1151884056
 20
18346.8144708554
 40
2.998078255
 50
270.4169907459
 51
0.4102394581
  0
LINE
  8
CYAN
 10
-42040.093369
 20
18343.816472
 11
-42052.660156
 21
18344.833984
  0
ARC
  8
CYAN
 10
-42052.671817147
 20
18340.4785663849
 40
4.3554332257
 50
89.8465972799
 51
172.2595270459
  0
ARC
  8
CYAN
 10
-42063.8327879743
 20
18343.3555760008
 40
7.2182392358
 50
182.4088146827
 51
341.4998988862
  0
ARC
  8
CYAN
 10
-42129.6551655375
 20
18340.5861490766
 40
58.6623733417
 50
2.4093100255
 51
30.304691454
  0
ARC
  8
CYAN
 10
-43061.4448435387
 20
17796.1186435813
 40
1137.8643321672
 50
30.2990932748
 51
34.9477424119
  0
ARC
  8
CYAN
 10
-42131.2401209527
 20
18446.861475758
 40
2.6911451183
 50
23.1719146539
 51
165.0094196323
  0
ARC
  8
CYAN
 10
-42815.5416982019
 20
18416.5647065553
 40
682.406181357
 50
351.7230351475
 51
2.6030995181
  0
ARC
  8
CYAN
 10
-42152.2019871331
 20
18324.132786319
 40
13.2933695187
 50
277.0334986642
 51
334.1019752692
  0
ARC
  8
CYAN
 10
-42053.2148435653
 20
18452.5078123058
 40
9.8112994036
 50
262.5699820341
 51
347.6872842563
  0
LINE
  8
CYAN
 10
-42043.629221
 20
18450.41558
 11
-42040.621094
 21
18464.193359
  0
ARC
  8
CYAN
 10
-42035.7961964992
 20
18462.9669756152
 40
4.9783181999
 50
43.7583070439
 51
165.7386719129
  0
LINE
  8
CYAN
 10
-42032.200538
 20
18466.410069
 11
-42034.277344
 21
18456.105469
  0
LINE
  8
CYAN
 10
-42034.277344
 20
18456.105469
 11
-42031.335937
 21
18455.511719
  0
LINE
  8
CYAN
 10
-42031.335937
 20
18455.511719
 11
-42029.261719
 21
18465.822266
  0
ARC
  8
CYAN
 10
-42026.9499840655
 20
18458.6497218733
 40
7.5358813457
 50
313.6782473841
 51
107.8643045539
  0
LINE
  8
CYAN
 10
-42021.745645
 20
18453.199551
 11
-42027.855469
 21
18447.367187
  0
LINE
  8
CYAN
 10
-42027.855469
 20
18447.367187
 11
-42025.78125
 21
18445.197266
  0
LINE
  8
CYAN
 10
-42025.78125
 20
18445.197266
 11
-42020.625
 21
18450.117187
  0
ARC
  8
CYAN
 10
-42020.7027332274
 20
18445.3172034093
 40
4.8006129739
 50
308.3835410605
 51
89.0722058761
  0
ARC
  8
CYAN
 10
-42009.613167087
 20
18431.2991908143
 40
13.0734800439
 50
128.3340071133
 51
196.8044790857
  0
ARC
  8
CYAN
 10
-42027.9148413601
 20
18425.7663158004
 40
6.0462493419
 50
279.7562021442
 51
16.85630135
  0
LINE
  8
CYAN
 10
-42026.890267
 20
18419.807509
 11
-42030.574219
 21
18427.294922
  0
LINE
  8
CYAN
 10
-42030.574219
 20
18427.294922
 11
-42033.265625
 21
18425.970703
  0
LINE
  8
CYAN
 10
-42033.265625
 20
18425.970703
 11
-42029.746094
 21
18418.806641
  0
ARC
  8
CYAN
 10
-42033.3679238279
 20
18424.1134645326
 40
6.4249534868
 50
207.7132858949
 51
304.3129676317
  0
ARC
  8
CYAN
 10
-42041.7973415045
 20
18419.6873991476
 40
3.0958208242
 50
27.6809833433
 51
176.7167965983
  0
LINE
  8
CYAN
 10
-42044.888081
 20
18419.864701
 11
-42044.894531
 21
18403.958984
  0
ARC
  8
CYAN
 10
-42048.8945310046
 20
18403.9589839954
 40
4.0000000046
 50
270.0038818546
 51
0.000000066
  0
LINE
  8
CYAN
 10
-42048.89426
 20
18399.958984
 11
-42052.984375
 21
18399.964844
  0
LINE
  8
CYAN
 10
-42052.984375
 20
18399.964844
 11
-42052.984375
 21
18415.726562
  0
LINE
  8
CYAN
 10
-42052.984375
 20
18415.726562
 11
-42055.980469
 21
18415.726562
  0
LINE
  8
CYAN
 10
-42055.980469
 20
18415.726562
 11
-42055.980469
 21
18399.962891
  0
LINE
  8
CYAN
 10
-42055.980469
 20
18399.962891
 11
-42060.074219
 21
18399.960937
  0
ARC
  8
CYAN
 10
-42060.073242177
 20
18403.961913766
 40
4.0009768853
 50
179.9898864137
 51
269.9860114579
  0
LINE
  8
CYAN
 10
-42064.074219
 20
18403.96262
 11
-42064.074219
 21
18419.865234
  0
ARC
  8
CYAN
 10
-42067.1647369036
 20
18419.6876459621
 40
3.0956160007
 50
3.2887265174
 51
152.3043571697
  0
ARC
  8
CYAN
 10
-42075.595417419
 20
18424.1157905312
 40
6.4272428739
 50
235.6398093539
 51
332.2826023346
  0
LINE
  8
CYAN
 10
-42079.222912
 20
18418.810064
 11
-42075.699219
 21
18425.974609
  0
LINE
  8
CYAN
 10
-42075.699219
 20
18425.974609
 11
-42078.394531
 21
18427.298828
  0
LINE
  8
CYAN
 10
-42078.394531
 20
18427.298828
 11
-42082.074219
 21
18419.8125
  0
ARC
  8
CYAN
 10
-42081.0505022117
 20
18425.7729858516
 40
6.0477588948
 50
163.1737084808
 51
260.2545004576
  0
ARC
  8
CYAN
 10
-42099.3521537427
 20
18431.3065743528
 40
13.0721535277
 50
343.1786205014
 51
51.6369724022
  0
ARC
  8
CYAN
 10
-42088.2577757711
 20
18445.3204188017
 40
4.8016559318
 50
90.9048224705
 51
231.6195885402
  0
LINE
  8
CYAN
 10
-42088.333601
 20
18450.121476
 11
-42083.179687
 21
18445.199219
  0
LINE
  8
CYAN
 10
-42083.179687
 20
18445.199219
 11
-42081.109375
 21
18447.371094
  0
LINE
  8
CYAN
 10
-42081.109375
 20
18447.371094
 11
-42087.21875
 21
18453.203125
  0
ARC
  8
CYAN
 10
-42082.0156067572
 20
18458.652374628
 40
7.5343892329
 50
72.1183363885
 51
226.3234912851
  0
LINE
  8
CYAN
 10
-42079.702157
 20
18465.822798
 11
-42077.628906
 21
18455.513672
  0
LINE
  8
CYAN
 10
-42077.628906
 20
18455.513672
 11
-42074.683594
 21
18456.105469
  0
LINE
  8
CYAN
 10
-42074.683594
 20
18456.105469
 11
-42076.757812
 21
18466.416016
  0
ARC
  8
CYAN
 10
-42073.1638097805
 20
18462.9706364496
 40
4.9787038675
 50
14.2282392628
 51
136.2095077403
  0
LINE
  8
CYAN
 10
-42068.337831
 20
18464.194328
 11
-42065.332031
 21
18450.416016
  0
ARC
  8
CYAN
 10
-42055.7480056415
 20
18452.5064075668
 40
9.8093465112
 50
192.3042008315
 51
277.405960747
  0
LINE
  8
CYAN
 10
-42104.910156
 20
18167.732422
 11
-42112.953125
 21
18167.734375
  0
LINE
  8
CYAN
 10
-42112.953125
 20
18167.734375
 11
-42114.0625
 21
18178.027344
  0
LINE
  8
CYAN
 10
-42114.0625
 20
18178.027344
 11
-42117.042969
 21
18177.705078
  0
LINE
  8
CYAN
 10
-42117.042969
 20
18177.705078
 11
-42115.96875
 21
18167.732422
  0
LINE
  8
CYAN
 10
-42115.96875
 20
18167.732422
 11
-42130.875
 21
18167.738281
  0
LINE
  8
CYAN
 10
-42130.875
 20
18167.738281
 11
-42129.796875
 21
18177.705078
  0
LINE
  8
CYAN
 10
-42129.796875
 20
18177.705078
 11
-42132.785156
 21
18178.029297
  0
LINE
  8
CYAN
 10
-42132.785156
 20
18178.029297
 11
-42133.890625
 21
18167.734375
  0
LINE
  8
CYAN
 10
-42133.890625
 20
18167.734375
 11
-42141.9375
 21
18167.736328
  0
LINE
  8
CYAN
 10
-42141.9375
 20
18167.736328
 11
-42140.65625
 21
18178.302734
  0
LINE
  8
CYAN
 10
-42140.65625
 20
18178.302734
 11
-42143.636719
 21
18178.662109
  0
LINE
  8
CYAN
 10
-42143.636719
 20
18178.662109
 11
-42144.917969
 21
18168.097656
  0
ARC
  8
CYAN
 10
-42146.7850469702
 20
18176.6561083083
 40
8.7597423512
 50
152.8489038059
 51
282.3066053434
  0
ARC
  8
CYAN
 10
-42177.1833561963
 20
18204.6509479386
 40
32.9668030364
 50
313.2871000587
 51
0.4695078621
  0
ARC
  8
CYAN
 10
-42138.0148697885
 20
18204.9712709502
 40
6.2029931916
 50
73.4258411103
 51
180.4635162306
  0
LINE
  8
CYAN
 10
-42136.245428
 20
18210.916538
 11
-42138.015625
 21
18198.519531
  0
LINE
  8
CYAN
 10
-42138.015625
 20
18198.519531
 11
-42135.050781
 21
18198.097656
  0
LINE
  8
CYAN
 10
-42135.050781
 20
18198.097656
 11
-42131.898437
 21
18220.1875
  0
ARC
  8
CYAN
 10
-42125.2848004663
 20
18219.2392779203
 40
6.6812658466
 50
86.8181642307
 51
171.8408905536
  0
LINE
  8
CYAN
 10
-42124.913957
 20
18225.910244
 11
-42124.917969
 21
18207.628906
  0
LINE
  8
CYAN
 10
-42124.917969
 20
18207.628906
 11
-42121.914062
 21
18207.628906
  0
LINE
  8
CYAN
 10
-42121.914062
 20
18207.628906
 11
-42121.914062
 21
18225.914062
  0
ARC
  8
CYAN
 10
-42121.5517199728
 20
18219.2449121822
 40
6.6789857791
 50
8.0973181472
 51
93.1098832697
  0
LINE
  8
CYAN
 10
-42114.939322
 20
18220.18568
 11
-42111.792969
 21
18198.091797
  0
LINE
  8
CYAN
 10
-42111.792969
 20
18198.091797
 11
-42108.820312
 21
18198.515625
  0
LINE
  8
CYAN
 10
-42108.820312
 20
18198.515625
 11
-42110.589844
 21
18210.914062
  0
ARC
  8
CYAN
 10
-42108.8242526346
 20
18204.966822316
 40
6.2037869667
 50
359.5293172097
 51
106.5348784443
  0
ARC
  8
CYAN
 10
-42069.653546331
 20
18204.6414887281
 40
32.9682703781
 50
179.523164549
 51
226.7076272563
  0
ARC
  8
CYAN
 10
-42100.0576006114
 20
18176.6497267105
 40
8.7610520668
 50
257.6585501865
 51
27.1315250382
  0
LINE
  8
CYAN
 10
-42101.930163
 20
18168.091132
 11
-42103.207031
 21
18178.660156
  0
LINE
  8
CYAN
 10
-42103.207031
 20
18178.660156
 11
-42106.1875
 21
18178.298828
  0
LINE
  8
CYAN
 10
-42106.1875
 20
18178.298828
 11
-42104.910156
 21
18167.732422
  0
LINE
  8
CYAN
 10
-41777.738281
 20
18294.201172
 11
-41777.742187
 21
18312.455078
  0
LINE
  8
CYAN
 10
-41777.742187
 20
18312.455078
 11
-41780.738281
 21
18312.457031
  0
LINE
  8
CYAN
 10
-41780.738281
 20
18312.457031
 11
-41780.738281
 21
18294.203125
  0
ARC
  8
CYAN
 10
-41781.4495327531
 20
18289.782552548
 40
4.4774255839
 50
80.8596829848
 51
227.6385711092
  0
ARC
  8
CYAN
 10
-41788.4018201643
 20
18282.1623402046
 40
5.8377060912
 50
180.0169521269
 51
47.6133425798
  0
LINE
  8
CYAN
 10
-41794.239526
 20
18282.160613
 11
-41794.242187
 21
18331.835937
  0
ARC
  8
CYAN
 10
-41790.9450097132
 20
18331.8362160181
 40
3.2971772986
 50
85.4106928459
 51
180.0048485595
  0
ARC
  8
CYAN
 10
-41790.332211902
 20
18339.4724777387
 40
4.3636329878
 50
265.4128771928
 51
3.7446183233
  0
LINE
  8
CYAN
 10
-41785.977895
 20
18339.757464
 11
-41785.984375
 21
18362.419922
  0
ARC
  8
CYAN
 10
-41779.2495169999
 20
18362.4199237823
 40
6.7348580001
 50
359.9996360357
 51
180.0000151631
  0
LINE
  8
CYAN
 10
-41772.514659
 20
18362.419881
 11
-41772.511719
 21
18339.757812
  0
ARC
  8
CYAN
 10
-41768.156767907
 20
18339.477072009
 40
4.3639906009
 50
176.3115566602
 51
274.5688965648
  0
ARC
  8
CYAN
 10
-41767.5394138388
 20
18331.8401681486
 40
3.2978298389
 50
359.9999626709
 51
94.6914390429
  0
LINE
  8
CYAN
 10
-41764.241584
 20
18331.840166
 11
-41764.234375
 21
18282.164062
  0
ARC
  8
CYAN
 10
-41770.0709351856
 20
18282.1623839728
 40
5.8365604268
 50
132.365794126
 51
0.0164726945
  0
ARC
  8
CYAN
 10
-41777.0225889869
 20
18289.7814477711
 40
4.4772957594
 50
312.3925447681
 51
99.1981416481
  0
ARC
  8
CYAN
 10
-41976.6562495312
 20
18207.515625
 40
12.0235271563
 50
27.4836103242
 51
152.5297639479
  0
ARC
  8
CYAN
 10
-41955.2460944996
 20
18196.3867271876
 40
36.1533241612
 50
152.5331261874
 51
214.4505893338
  0
ARC
  8
CYAN
 10
-41983.6131363162
 20
18176.9258634671
 40
1.7525353529
 50
214.430824886
 51
24.933863416
  0
ARC
  8
CYAN
 10
-41962.121035298
 20
18186.9331000175
 40
21.9551681484
 50
168.5833133099
 51
204.9705237368
  0
ARC
  8
CYAN
 10
-41977.3659910672
 20
18190.0147822466
 40
6.4018595199
 50
97.1334405304
 51
168.6108532755
  0
LINE
  8
CYAN
 10
-41978.160978
 20
18196.367089
 11
-41978.160156
 21
18202.255859
  0
LINE
  8
CYAN
 10
-41978.160156
 20
18202.255859
 11
-41975.160156
 21
18202.255859
  0
LINE
  8
CYAN
 10
-41975.160156
 20
18202.255859
 11
-41975.160156
 21
18196.367187
  0
ARC
  8
CYAN
 10
-41975.9501292565
 20
18190.0125629573
 40
6.4035384335
 50
11.4151948121
 51
82.9136469639
  0
ARC
  8
CYAN
 10
-41991.1918414946
 20
18186.9299221392
 40
21.9538586515
 50
335.0438530338
 51
11.428410182
  0
ARC
  8
CYAN
 10
-41969.6962743057
 20
18176.9302349622
 40
1.7538047501
 50
155.1575270698
 51
325.5258415779
  0
ARC
  8
CYAN
 10
-41998.0702575897
 20
18196.3856532295
 40
36.1572377757
 50
325.56064753
 51
27.4700150817
  0
LINE
  8
CYAN
 10
-41863.0625
 20
18245.017578
 11
-41858.304687
 21
18239.878906
  0
ARC
  8
CYAN
 10
-41909.5236717005
 20
18307.3201533771
 40
84.6859270571
 50
300.8905691968
 51
307.2152466034
  0
LINE
  8
CYAN
 10
-41866.045916
 20
18234.646974
 11
-41870.367187
 21
18240.591797
  0
LINE
  8
CYAN
 10
-41870.367187
 20
18240.591797
 11
-41872.792969
 21
18238.828125
  0
LINE
  8
CYAN
 10
-41872.792969
 20
18238.828125
 11
-41868.664062
 21
18233.144531
  0
ARC
  8
CYAN
 10
-41909.5330447099
 20
18307.3156046042
 40
84.6854291324
 50
293.3508502987
 51
298.8551915854
  0
LINE
  8
CYAN
 10
-41875.967088
 20
18229.566338
 11
-41880.902344
 21
18235.884766
  0
LINE
  8
CYAN
 10
-41880.902344
 20
18235.884766
 11
-41883.265625
 21
18234.037109
  0
LINE
  8
CYAN
 10
-41883.265625
 20
18234.037109
 11
-41878.851562
 21
18228.382812
  0
LINE
  8
CYAN
 10
-41878.851562
 20
18228.382812
 11
-41881.399802
 21
18227.440589
  0
ARC
  8
CYAN
 10
-41878.5889720756
 20
18221.9789742861
 40
6.1424750832
 50
117.2326976084
 51
203.0223870921
  0
ARC
  8
CYAN
 10
-41814.4599198035
 20
18249.208141064
 40
75.8128621697
 50
203.007378604
 51
257.696522374
  0
ARC
  8
CYAN
 10
-41831.1874568628
 20
18172.5162880814
 40
2.6820475035
 50
274.8827962851
 51
77.6728811042
  0
ARC
  8
CYAN
 10
-41819.1674204559
 20
18248.1168211784
 40
79.1560729949
 50
190.9528397217
 51
261.4328565532
  0
ARC
  8
CYAN
 10
-41886.898104908
 20
18235.0084956405
 40
10.1685827414
 50
117.2326434861
 51
190.9491853236
  0
ARC
  8
CYAN
 10
-41907.8079375387
 20
18307.3976736741
 40
65.400401538
 50
284.3929668257
 51
17.827271455
  0
ARC
  8
CYAN
 10
-41860.7345332753
 20
18322.5371150172
 40
15.9523675165
 50
17.8234918945
 51
157.822005664
  0
ARC
  8
CYAN
 10
-41884.249284954
 20
18332.1215367434
 40
9.4406372003
 50
265.7011071482
 51
337.8289571856
  0
LINE
  8
CYAN
 10
-41884.95695
 20
18322.70746
 11
-41884.957031
 21
18338.337891
  0
LINE
  8
CYAN
 10
-41884.957031
 20
18338.337891
 11
-41887.953125
 21
18338.337891
  0
LINE
  8
CYAN
 10
-41887.953125
 20
18338.337891
 11
-41887.953125
 21
18322.015625
  0
ARC
  8
CYAN
 10
-41889.1783414286
 20
18327.153230513
 40
5.281680197
 50
179.7866244917
 51
283.4133612989
  0
LINE
  8
CYAN
 10
-41894.459985
 20
18327.1729
 11
-41894.371094
 21
18353.472656
  0
ARC
  8
CYAN
 10
-41890.5134993103
 20
18353.4968911178
 40
3.8576708168
 50
120.0445879735
 51
180.3599527187
  0
ARC
  8
CYAN
 10
-41894.7801781922
 20
18360.862242873
 40
4.6542609607
 50
300.1154021054
 51
151.713646693
  0
ARC
  8
CYAN
 10
-41905.2781995347
 20
18366.5163840096
 40
7.2695712826
 50
125.1621091936
 51
331.6805826144
  0
LINE
  8
CYAN
 10
-41909.464686
 20
18372.459447
 11
-41891.949219
 21
18384.757812
  0
ARC
  8
CYAN
 10
-41889.1020185232
 20
18380.7013077669
 40
4.9559839738
 50
21.8113086864
 51
125.0644504479
  0
LINE
  8
CYAN
 10
-41884.500821
 20
18382.542709
 11
-41893.039062
 21
18376.130859
  0
LINE
  8
CYAN
 10
-41893.039062
 20
18376.130859
 11
-41891.238281
 21
18373.730469
  0
LINE
  8
CYAN
 10
-41891.238281
 20
18373.730469
 11
-41882.699219
 21
18380.142578
  0
ARC
  8
CYAN
 10
-41872.0718718224
 20
18384.0102858193
 40
11.3092737083
 50
199.998427899
 51
303.139707675
  0
LINE
  8
CYAN
 10
-41865.889291
 20
18374.540578
 11
-41851.566406
 21
18383.892578
  0
LINE
  8
CYAN
 10
-41851.566406
 20
18383.892578
 11
-41842.457031
 21
18368.144531
  0
LINE
  8
CYAN
 10
-41842.457031
 20
18368.144531
 11
-41839.863281
 21
18369.644531
  0
LINE
  8
CYAN
 10
-41839.863281
 20
18369.644531
 11
-41848.96875
 21
18385.392578
  0
ARC
  8
CYAN
 10
-41846.211888356
 20
18383.4510962206
 40
3.3718893255
 50
44.263014825
 51
144.8454067281
  0
ARC
  8
CYAN
 10
-41913.4344859678
 20
18317.9037524838
 40
97.2618881655
 50
20.4140917769
 51
44.2766081107
  0
ARC
  8
CYAN
 10
-41834.6170639965
 20
18347.2369400045
 40
13.1630065321
 50
316.8542359658
 51
20.417424825
  0
ARC
  8
CYAN
 10
-41817.35964571
 20
18331.063394739
 40
10.4886753097
 50
136.8603544604
 51
194.4417851509
  0
ARC
  8
CYAN
 10
-41909.5211062484
 20
18307.3080136096
 40
84.6851288113
 50
7.007154944
 51
14.4553367862
  0
LINE
  8
CYAN
 10
-41825.468497
 20
18317.639031
 11
-41832.570312
 21
18319.427734
  0
LINE
  8
CYAN
 10
-41832.570312
 20
18319.427734
 11
-41833.300781
 21
18316.519531
  0
LINE
  8
CYAN
 10
-41833.300781
 20
18316.519531
 11
-41825.136719
 21
18314.462891
  0
ARC
  8
CYAN
 10
-41909.5243185827
 20
18307.3457157016
 40
84.6871958891
 50
359.1541951557
 51
4.8208664124
  0
LINE
  8
CYAN
 10
-41824.84635
 20
18306.095602
 11
-41831.050781
 21
18307.794922
  0
LINE
  8
CYAN
 10
-41831.050781
 20
18307.794922
 11
-41831.84375
 21
18304.900391
  0
LINE
  8
CYAN
 10
-41831.84375
 20
18304.900391
 11
-41824.945312
 21
18303.013672
  0
ARC
  8
CYAN
 10
-41909.5217626504
 20
18307.3358725954
 40
84.686819651
 50
350.6424881424
 51
357.0744976496
  0
LINE
  8
CYAN
 10
-41825.96187
 20
18293.566277
 11
-41832.105469
 21
18295.816406
  0
LINE
  8
CYAN
 10
-41832.105469
 20
18295.816406
 11
-41833.136719
 21
18292.998047
  0
LINE
  8
CYAN
 10
-41833.136719
 20
18292.998047
 11
-41826.507812
 21
18290.570312
  0
ARC
  8
CYAN
 10
-41909.5172038251
 20
18307.3444863291
 40
84.687260291
 50
342.5074760962
 51
348.5757630408
  0
LINE
  8
CYAN
 10
-41828.746206
 20
18281.889075
 11
-41835.171875
 21
18284.291016
  0
LINE
  8
CYAN
 10
-41835.171875
 20
18284.291016
 11
-41836.226562
 21
18281.482422
  0
LINE
  8
CYAN
 10
-41836.226562
 20
18281.482422
 11
-41829.699219
 21
18279.039062
  0
ARC
  8
CYAN
 10
-41909.5229131629
 20
18307.3215613311
 40
84.686019615
 50
334.0138318725
 51
340.4901487083
  0
LINE
  8
CYAN
 10
-41833.398663
 20
18270.21603
 11
-41839.335937
 21
18273.597656
  0
LINE
  8
CYAN
 10
-41839.335937
 20
18273.597656
 11
-41840.820312
 21
18270.990234
  0
LINE
  8
CYAN
 10
-41840.820312
 20
18270.990234
 11
-41834.761719
 21
18267.542969
  0
ARC
  8
CYAN
 10
-41909.5278295949
 20
18307.3130436129
 40
84.68547767
 50
325.7169957481
 51
331.9903054999
  0
LINE
  8
CYAN
 10
-41839.555148
 20
18259.611325
 11
-41845.132812
 21
18263.712891
  0
LINE
  8
CYAN
 10
-41845.132812
 20
18263.712891
 11
-41846.914062
 21
18261.296875
  0
LINE
  8
CYAN
 10
-41846.914062
 20
18261.296875
 11
-41841.289062
 21
18257.158203
  0
ARC
  8
CYAN
 10
-41909.5069663661
 20
18307.3404200173
 40
84.6872917319
 50
317.696473696
 51
323.6611862299
  0
LINE
  8
CYAN
 10
-41846.87312
 20
18250.340958
 11
-41852.671875
 21
18254.804687
  0
LINE
  8
CYAN
 10
-41852.671875
 20
18254.804687
 11
-41854.503906
 21
18252.429687
  0
LINE
  8
CYAN
 10
-41854.503906
 20
18252.429687
 11
-41848.941406
 21
18248.144531
  0
ARC
  8
CYAN
 10
-41909.5138521222
 20
18307.3290802014
 40
84.6866701045
 50
309.2402790996
 51
315.6639869
  0
LINE
  8
CYAN
 10
-41855.943272
 20
18241.739256
 11
-41860.863281
 21
18247.054687
  0
LINE
  8
CYAN
 10
-41860.863281
 20
18247.054687
 11
-41863.0625
 21
18245.017578
  0
LINE
  8
CYAN
 10
-41923.3125
 20
18313.570312
 11
-41920.308594
 21
18313.568359
  0
LINE
  8
CYAN
 10
-41920.308594
 20
18313.568359
 11
-41920.3125
 21
18307.574219
  0
ARC
  8
CYAN
 10
-41919.1911014165
 20
18297.4693434059
 40
10.1669093414
 50
13.1424984735
 51
96.3325442356
  0
ARC
  8
CYAN
 10
-41947.8406722226
 20
18290.7599826209
 40
39.5916154943
 50
330.1281504137
 51
13.1706720569
  0
ARC
  8
CYAN
 10
-41911.8973565502
 20
18270.116433269
 40
1.8580901462
 50
150.1624216324
 51
320.037668937
  0
ARC
  8
CYAN
 10
-41943.5859328936
 20
18296.6861208578
 40
43.2116167591
 50
320.0221222985
 51
39.1579084021
  0
ARC
  8
CYAN
 10
-41921.8088364549
 20
18314.4179691374
 40
15.1285193154
 50
39.1652333527
 51
140.7740720671
  0
ARC
  8
CYAN
 10
-41900.0507753076
 20
18296.6631295691
 40
43.2113885185
 50
140.7812658599
 51
219.918296022
  0
ARC
  8
CYAN
 10
-41931.7650409499
 20
18270.125405833
 40
1.8586947718
 50
219.840989051
 51
29.7468097377
  0
ARC
  8
CYAN
 10
-41895.8007405537
 20
18290.7380037277
 40
39.5938108485
 50
166.776532042
 51
209.8221477655
  0
ARC
  8
CYAN
 10
-41924.4497449079
 20
18297.4703323972
 40
10.1644088964
 50
83.565408856
 51
166.7786402834
  0
LINE
  8
CYAN
 10
-41923.310631
 20
18307.57071
 11
-41923.3125
 21
18313.570312
  0
LINE
  8
CYAN
 10
-42090.820312
 20
18285.410156
 11
-42087.820312
 21
18285.412109
  0
LINE
  8
CYAN
 10
-42087.820312
 20
18285.412109
 11
-42087.820312
 21
18279.414062
  0
ARC
  8
CYAN
 10
-42086.6928866231
 20
18269.3115927595
 40
10.1651843434
 50
13.1653095632
 51
96.3678028452
  0
ARC
  8
CYAN
 10
-42115.347379136
 20
18262.6034486479
 40
39.5944067418
 50
330.1297644212
 51
13.1731925679
  0
ARC
  8
CYAN
 10
-42079.3989444143
 20
18241.9593376721
 40
1.8600183851
 50
150.1915645013
 51
320.054790455
  0
ARC
  8
CYAN
 10
-42111.0898426384
 20
18268.5236321367
 40
43.2118594082
 50
320.0303176515
 51
39.1700989921
  0
ARC
  8
CYAN
 10
-42089.3182387382
 20
18286.2597653866
 40
15.1303146594
 50
39.1743325584
 51
140.7914167533
  0
ARC
  8
CYAN
 10
-42067.55469282
 20
18268.512630289
 40
43.2125638738
 50
140.7998509754
 51
219.931985007
  0
ARC
  8
CYAN
 10
-42099.26688097
 20
18241.9666884117
 40
1.8561870281
 50
219.9238609885
 51
29.7517048409
  0
ARC
  8
CYAN
 10
-42063.3086471705
 20
18262.5843479845
 40
39.5935730541
 50
166.7892337539
 51
209.8326341179
  0
ARC
  8
CYAN
 10
-42091.9583825198
 20
18269.3095942912
 40
10.1650788118
 50
83.5729782353
 51
166.7883100492
  0
LINE
  8
CYAN
 10
-42090.820528
 20
18279.410788
 11
-42090.820312
 21
18285.410156
  0
LINE
  8
CYAN
 10
-41982.753906
 20
18419.402344
 11
-41979.757812
 21
18419.402344
  0
LINE
  8
CYAN
 10
-41979.757812
 20
18419.402344
 11
-41979.757812
 21
18425.402344
  0
ARC
  8
CYAN
 10
-41978.6219159094
 20
18435.5033261793
 40
10.1646495717
 50
263.5838146011
 51
346.8187371662
  0
ARC
  8
CYAN
 10
-42007.2733840697
 20
18442.2242472093
 40
39.5938422136
 50
346.8037115764
 51
29.8430470821
  0
ARC
  8
CYAN
 10
-41971.3161001142
 20
18462.8498222252
 40
1.859032031
 50
40.0024952646
 51
209.7562427202
  0
ARC
  8
CYAN
 10
-42003.0195178408
 20
18436.3007296344
 40
43.2107059382
 50
320.8062804539
 51
39.9460355842
  0
ARC
  8
CYAN
 10
-41981.2566091463
 20
18418.5546868443
 40
15.1296406292
 50
219.1793643097
 51
320.8080987579
  0
ARC
  8
CYAN
 10
-41959.4843939636
 20
18436.29411483
 40
43.2137403113
 50
140.0379816526
 51
219.1747353817
  0
ARC
  8
CYAN
 10
-41991.1827796206
 20
18462.8549007188
 40
1.8584145561
 50
330.1828000083
 51
140.0018339628
  0
ARC
  8
CYAN
 10
-41955.2299410757
 20
18442.2204008405
 40
39.5950438762
 50
150.1454121722
 51
193.1866950541
  0
ARC
  8
CYAN
 10
-41983.8853105874
 20
18435.5029115237
 40
10.1628366783
 50
193.1677413006
 51
276.3806268259
  0
LINE
  8
CYAN
 10
-41982.755885
 20
18425.403028
 11
-41982.753906
 21
18419.402344
  0
ARC
  8
CYAN
 10
-41929.9570312742
 20
18428.970702857
 40
2.8048229318
 50
79.2544624385
 51
155.838814456
  0
ARC
  8
CYAN
 10
-41921.5155455297
 20
18425.1936912293
 40
12.0527675431
 50
155.8816278188
 51
201.9699433195
  0
ARC
  8
CYAN
 10
-41934.5868084854
 20
18419.9214976946
 40
2.0416974929
 50
204.8751255794
 51
21.9448333641
  0
ARC
  8
CYAN
 10
-41903.5005204479
 20
18434.3522409954
 40
36.3141885346
 50
160.8056475855
 51
204.8999879784
  0
ARC
  8
CYAN
 10
-41927.9320170109
 20
18442.8554694653
 40
10.4452321179
 50
19.1817339015
 51
160.7951901141
  0
ARC
  8
CYAN
 10
-41952.3709491353
 20
18434.3583582843
 40
36.3192015883
 50
335.0846038587
 51
19.1747454139
  0
ARC
  8
CYAN
 10
-41921.2826689459
 20
18419.9185842893
 40
2.0411003999
 50
158.0574501096
 51
335.0571012859
  0
ARC
  8
CYAN
 10
-41934.351555009
 20
18425.1910314991
 40
12.0512553553
 50
338.0243249355
 51
24.1145938077
  0
ARC
  8
CYAN
 10
-41925.91331424
 20
18428.9703118411
 40
2.8053453677
 50
24.0755742045
 51
100.6956097981
  0
LINE
  8
CYAN
 10
-41926.433962
 20
18431.72692
 11
-41926.433594
 21
18436.955078
  0
LINE
  8
CYAN
 10
-41926.433594
 20
18436.955078
 11
-41929.429687
 21
18436.955078
  0
LINE
  8
CYAN
 10
-41929.429687
 20
18436.955078
 11
-41929.434079
 21
18431.726343
  0
LINE
  8
CYAN
 10
-42034.832031
 20
18218.046875
 11
-42037.835937
 21
18218.044922
  0
LINE
  8
CYAN
 10
-42037.835937
 20
18218.044922
 11
-42037.832031
 21
18212.048828
  0
ARC
  8
CYAN
 10
-42038.954622847
 20
18201.9450613221
 40
10.1659388911
 50
83.6600821432
 51
166.8528613028
  0
ARC
  8
CYAN
 10
-42010.3038584924
 20
18195.2365428488
 40
39.5916156468
 50
166.8297162482
 51
209.8719566493
  0
ARC
  8
CYAN
 10
-42046.2492862946
 20
18174.5922949328
 40
1.8602698206
 50
219.9832578463
 51
29.8215965632
  0
ARC
  8
CYAN
 10
-42014.5585744343
 20
18201.1593485657
 40
43.2137407146
 50
140.8379191532
 51
219.9742825042
  0
ARC
  8
CYAN
 10
-42036.3337421351
 20
18218.8945302069
 40
15.1300337627
 50
39.2166366734
 51
140.8372503989
  0
ARC
  8
CYAN
 10
-42058.0976320179
 20
18201.1444438065
 40
43.214414587
 50
320.0746618608
 51
39.2057127009
  0
ARC
  8
CYAN
 10
-42026.3807247337
 20
18174.6028281178
 40
1.8571959596
 50
150.2773008363
 51
320.0350054886
  0
ARC
  8
CYAN
 10
-42062.3390260011
 20
18195.2184921067
 40
39.5916314859
 50
330.1685570145
 51
13.213695564
  0
ARC
  8
CYAN
 10
-42033.6927198403
 20
18201.9454393074
 40
10.1660869203
 50
13.2093487008
 51
96.4460151992
  0
LINE
  8
CYAN
 10
-42034.834036
 20
18212.047257
 11
-42034.832031
 21
18218.046875
  0
ARC
  8
CYAN
 10
-41738.6992189885
 20
18363.9121093746
 40
1.8772510573
 50
84.8826844792
 51
271.6095587693
  0
LINE
  8
CYAN
 10
-41738.64649
 20
18362.035599
 11
-41729.230469
 21
18362.300781
  0
ARC
  8
CYAN
 10
-41730.7724777594
 20
18375.5045827002
 40
13.2935386693
 50
276.6611258031
 51
333.741301977
  0
ARC
  8
CYAN
 10
-42131.7479660176
 20
18573.2269802961
 40
460.367904403
 50
333.7516274725
 51
344.6316957433
  0
ARC
  8
CYAN
 10
-41685.247483446
 20
18450.5038166306
 40
2.6911162051
 50
22.7727016556
 51
164.5877211852
  0
ARC
  8
CYAN
 10
-41390.648219106
 20
18521.171934597
 40
300.3010586655
 50
193.4063371419
 51
205.5594503984
  0
ARC
  8
CYAN
 10
-41654.1774722383
 20
18395.1398811102
 40
8.1850787106
 50
205.5642942603
 51
263.3117801892
  0
ARC
  8
CYAN
 10
-41654.621781205
 20
18391.3510327665
 40
4.3702678071
 50
263.3119274564
 51
351.8895562088
  0
ARC
  8
CYAN
 10
-41645.9821666567
 20
18390.1176820744
 40
4.3569366705
 50
89.4883127956
 51
171.8616344899
  0
LINE
  8
CYAN
 10
-41645.943257
 20
18394.474445
 11
-41641.570312
 21
18394.476562
  0
ARC
  8
CYAN
 10
-41641.5703122996
 20
18397.4765617002
 40
2.9999997002
 50
270.0000057228
 51
0.0296085493
  0
LINE
  8
CYAN
 10
-41638.570313
 20
18397.478112
 11
-41638.570312
 21
18401.074219
  0
LINE
  8
CYAN
 10
-41638.570312
 20
18401.074219
 11
-41645.933594
 21
18401.074219
  0
LINE
  8
CYAN
 10
-41645.933594
 20
18401.074219
 11
-41645.9375
 21
18404.074219
  0
LINE
  8
CYAN
 10
-41645.9375
 20
18404.074219
 11
-41638.574219
 21
18404.074219
  0
LINE
  8
CYAN
 10
-41638.574219
 20
18404.074219
 11
-41638.570312
 21
18406.257812
  0
ARC
  8
CYAN
 10
-41641.5722642296
 20
18406.2558597721
 40
3.0019528644
 50
0.037260555
 51
90.0373090804
  0
LINE
  8
CYAN
 10
-41641.574219
 20
18409.257812
 11
-41650.875
 21
18409.255859
  0
ARC
  8
CYAN
 10
-41650.5723416208
 20
18420.1081544222
 40
10.8565150037
 50
205.537698028
 51
268.402498892
  0
ARC
  8
CYAN
 10
-41258.7053210126
 20
18607.4295335133
 40
445.1940113476
 50
198.6659101441
 51
205.5485917096
  0
ARC
  8
CYAN
 10
-41685.4289242258
 20
18463.2733799547
 40
5.221386082
 50
18.6774091779
 51
152.7685803801
  0
ARC
  8
CYAN
 10
-42191.3702686895
 20
18588.9521432359
 40
516.2370220996
 50
335.1920712188
 51
346.1828872347
  0
ARC
  8
CYAN
 10
-41732.8780562716
 20
18377.2326852499
 40
11.2236011181
 50
288.2650387714
 51
334.2157392962
  0
LINE
  8
CYAN
 10
-41729.360433
 20
18366.574564
 11
-41738.531777
 21
18365.781878
  0
LINE
  8
CYAN
 10
-41978.003906
 20
18283.693359
 11
-41981.0
 21
18283.701172
  0
LINE
  8
CYAN
 10
-41981.0
 20
18283.701172
 11
-41981.011719
 21
18278.111328
  0
ARC
  8
CYAN
 10
-41980.0044581417
 20
18269.6829247474
 40
8.488377691
 50
96.8149773625
 51
184.1389222297
  0
ARC
  8
CYAN
 10
-41926.1555870675
 20
18269.6678099929
 40
62.3179757165
 50
180.5493872377
 51
197.9754376533
  0
ARC
  8
CYAN
 10
-41987.3605882214
 20
18249.8567467606
 40
2.013908359
 50
221.4846442197
 51
16.7131138489
  0
ARC
  8
CYAN
 10
-41955.7032427321
 20
18273.2201987384
 40
41.3515697523
 50
152.6182133215
 51
216.6736777238
  0
ARC
  8
CYAN
 10
-41979.499189316
 20
18284.8027257882
 40
14.9092609095
 50
29.7170019606
 51
150.0835901134
  0
ARC
  8
CYAN
 10
-42003.3360082486
 20
18273.3038001916
 40
41.3518713217
 50
323.6320760626
 51
27.1810522955
  0
ARC
  8
CYAN
 10
-41971.7584335091
 20
18249.832309272
 40
2.0145894415
 50
163.1348584516
 51
328.6255607668
  0
ARC
  8
CYAN
 10
-42032.8945841506
 20
18269.8590562765
 40
62.3186484244
 50
341.8213058938
 51
359.24354583
  0
ARC
  8
CYAN
 10
-41979.0463736364
 20
18269.6810291466
 40
8.4895228867
 50
355.6446046757
 51
83.0189975431
  0
LINE
  8
CYAN
 10
-41978.014555
 20
18278.107615
 11
-41978.003906
 21
18283.693359
  0
LINE
  8
CYAN
 10
-42019.71875
 20
18320.984375
 11
-42019.71875
 21
18326.601562
  0
LINE
  8
CYAN
 10
-42019.71875
 20
18326.601562
 11
-42016.722656
 21
18326.601562
  0
LINE
  8
CYAN
 10
-42016.722656
 20
18326.601562
 11
-42016.722656
 21
18320.986328
  0
ARC
  8
CYAN
 10
-42015.7380765068
 20
18314.3865887005
 40
6.6727772029
 50
16.5057420489
 51
98.4850694388
  0
ARC
  8
CYAN
 10
-42039.5901535017
 20
18307.3175005346
 40
31.5503491141
 50
330.9279199945
 51
16.5077981354
  0
ARC
  8
CYAN
 10
-42010.3400105148
 20
18291.0508880321
 40
1.9186491268
 50
150.8011816403
 51
323.7349165772
  0
ARC
  8
CYAN
 10
-42043.4335365749
 20
18315.3464519694
 40
42.9729532342
 50
323.7166538237
 51
27.5145219633
  0
ARC
  8
CYAN
 10
-42018.2174311932
 20
18327.7070382815
 40
14.9144985837
 50
30.1532748883
 51
150.4792782755
  0
ARC
  8
CYAN
 10
-41993.0077657636
 20
18315.3490206409
 40
42.9730398278
 50
152.7039058346
 51
216.2828440664
  0
ARC
  8
CYAN
 10
-42026.0988334869
 20
18291.0519798766
 40
1.9198467704
 50
216.1749106961
 51
29.1002634715
  0
ARC
  8
CYAN
 10
-41996.8521247334
 20
18307.3254077335
 40
31.5494589949
 50
163.5116182044
 51
209.0919206641
  0
ARC
  8
CYAN
 10
-42020.7050947911
 20
18314.3835108884
 40
6.6741503629
 50
81.5013666214
 51
163.4934460135
  0
LINE
  8
CYAN
 10
-41896.148437
 20
18424.835937
 11
-41886.15625
 21
18431.794922
  0
LINE
  8
CYAN
 10
-41886.15625
 20
18431.794922
 11
-41887.871094
 21
18434.255859
  0
LINE
  8
CYAN
 10
-41887.871094
 20
18434.255859
 11
-41897.863281
 21
18427.296875
  0
ARC
  8
CYAN
 10
-41896.2228812426
 20
18430.9853481864
 40
4.036798956
 50
140.0395931034
 51
246.0235248693
  0
ARC
  8
CYAN
 10
-41932.8469967799
 20
18463.9837516528
 40
45.2633047402
 50
317.7975343988
 51
349.4595481528
  0
ARC
  8
CYAN
 10
-41881.0396504604
 20
18455.818296741
 40
7.3087122191
 50
11.180791141
 51
180.8980123078
  0
ARC
  8
CYAN
 10
-41868.3822196625
 20
18457.4235716495
 40
5.4906584312
 50
181.9629793882
 51
311.2332358031
  0
ARC
  8
CYAN
 10
-41828.4170991656
 20
18389.6696663583
 40
73.2744624662
 50
27.5067150675
 51
119.7374713263
  0
ARC
  8
CYAN
 10
-41831.1839195736
 20
18388.2297942266
 40
76.3935210378
 50
1.0734678468
 51
27.5061459154
  0
ARC
  8
CYAN
 10
-43051.2068226224
 20
18292.3207608731
 40
1300.0522684649
 50
358.9476655925
 51
4.2939875677
  0
ARC
  8
CYAN
 10
-41753.3663240891
 20
18268.5898071893
 40
1.9977953536
 50
179.2875595154
 51
355.8270521568
  0
ARC
  8
CYAN
 10
-42916.2538828003
 20
18282.870531104
 40
1160.977446574
 50
359.2964355466
 51
5.4235084988
  0
ARC
  8
CYAN
 10
-41826.1250165417
 20
18389.6015705834
 40
65.7197411378
 50
2.6170814646
 51
122.5338998809
  0
ARC
  8
CYAN
 10
-41857.6633660481
 20
18439.044171735
 40
7.074721838
 50
122.5421137221
 51
177.3469892474
  0
ARC
  8
CYAN
 10
-41869.7257293976
 20
18439.6069290477
 40
5.0007626667
 50
303.3082881787
 51
357.3032131536
  0
LINE
  8
CYAN
 10
-41866.979592
 20
18435.427652
 11
-41885.984375
 21
18422.933594
  0
ARC
  8
CYAN
 10
-41890.0776006969
 20
18429.1678708111
 40
7.4579289325
 50
215.5103096144
 51
303.2876153446
  0
LINE
  8
CYAN
 10
-41880.929688
 20
18458.436773
 11
-41880.929688
 21
18458.436773
  0
LINE
  8
CYAN
 10
-41664.097656
 20
18207.962891
 11
-41674.089844
 21
18201.003906
  0
LINE
  8
CYAN
 10
-41674.089844
 20
18201.003906
 11
-41672.375
 21
18198.541016
  0
LINE
  8
CYAN
 10
-41672.375
 20
18198.541016
 11
-41662.382812
 21
18205.501953
  0
ARC
  8
CYAN
 10
-41664.0234637754
 20
18201.8126157224
 40
4.037690899
 50
320.0300571388
 51
66.0252399218
  0
ARC
  8
CYAN
 10
-41627.4001644738
 20
18168.8129219768
 40
45.2626493549
 50
137.7964362562
 51
169.4566288656
  0
ARC
  8
CYAN
 10
-41679.2044723837
 20
18176.9783732278
 40
7.3067743434
 50
191.182155846
 51
0.9151198323
  0
ARC
  8
CYAN
 10
-41691.8619260375
 20
18175.3744133712
 40
5.4925770859
 50
1.9507074889
 51
131.2290561021
  0
ARC
  8
CYAN
 10
-41731.8291687323
 20
18243.1292127379
 40
73.2743314736
 50
207.5068178573
 51
299.7385734652
  0
ARC
  8
CYAN
 10
-41729.062174127
 20
18244.5690325983
 40
76.393520409
 50
181.0734707249
 51
207.5061493952
  0
ARC
  8
CYAN
 10
-40509.0392705955
 20
18340.4780748373
 40
1300.0522691993
 50
178.9476609079
 51
184.293988127
  0
ARC
  8
CYAN
 10
-41806.879844595
 20
18364.2070715257
 40
1.9978700781
 50
359.2874796135
 51
175.7678772101
  0
ARC
  8
CYAN
 10
-40643.9922011501
 20
18349.9280772456
 40
1160.97743534
 50
179.2965210894
 51
185.4235062884
  0
ARC
  8
CYAN
 10
-41734.1210727432
 20
18243.1972549701
 40
65.7197366992
 50
182.6172313614
 51
302.533902644
  0
ARC
  8
CYAN
 10
-41702.5818313739
 20
18193.7542508719
 40
7.073897987
 50
302.537805426
 51
357.3341396344
  0
ARC
  8
CYAN
 10
-41690.5203135269
 20
18193.1919860842
 40
5.0007181593
 50
123.3093509048
 51
177.326578188
  0
LINE
  8
CYAN
 10
-41693.266504
 20
18197.371175
 11
-41674.261719
 21
18209.863281
  0
ARC
  8
CYAN
 10
-41670.1673354591
 20
18203.6307407563
 40
7.4571130117
 50
35.5168261192
 51
123.3023748991
  0
LINE
  8
CYAN
 10
-41679.316406
 20
18181.364507
 11
-41679.316406
 21
18181.364507
  0
LINE
  8
CYAN
 10
-41945.933594
 20
18351.861328
 11
-41942.933594
 21
18351.861328
  0
LINE
  8
CYAN
 10
-41942.933594
 20
18351.861328
 11
-41942.933594
 21
18357.861328
  0
ARC
  8
CYAN
 10
-41941.8013358641
 20
18367.9624994294
 40
10.1644317466
 50
263.6043121169
 51
346.8173539467
  0
ARC
  8
CYAN
 10
-41970.4499157356
 20
18374.6883607728
 40
39.5919406559
 50
346.7954415579
 51
29.8360695723
  0
ARC
  8
CYAN
 10
-41934.4943927772
 20
18395.3097814046
 40
1.8573370861
 50
40.0071010973
 51
209.8207712633
  0
ARC
  8
CYAN
 10
-41966.1992058414
 20
18368.7597147322
 40
43.2107060006
 50
320.806280354
 51
39.9460336163
  0
ARC
  8
CYAN
 10
-41944.434343472
 20
18351.0136722326
 40
15.1281267613
 50
219.1840391138
 51
320.803421865
  0
ARC
  8
CYAN
 10
-41922.6640580123
 20
18368.7544924463
 40
43.211609925
 50
140.0414021657
 51
219.1794191959
  0
ARC
  8
CYAN
 10
-41954.3597937934
 20
18395.3127918622
 40
1.8599121745
 50
330.1786998284
 51
140.075052732
  0
ARC
  8
CYAN
 10
-41918.4104897131
 20
18374.6735051959
 40
39.5928640518
 50
150.1370494197
 51
193.1786952827
  0
ARC
  8
CYAN
 10
-41947.0649977276
 20
18367.9618966226
 40
10.1628367922
 50
193.1677475131
 51
276.3806275492
  0
LINE
  8
CYAN
 10
-41945.935572
 20
18357.862013
 11
-41945.933594
 21
18351.861328
  0
LINE
  8
CYAN
 10
-41813.699219
 20
18395.091797
 11
-41810.699219
 21
18395.091797
  0
LINE
  8
CYAN
 10
-41810.699219
 20
18395.091797
 11
-41810.699219
 21
18401.091797
  0
ARC
  8
CYAN
 10
-41809.566960393
 20
18411.1929677618
 40
10.1644311357
 50
263.6043090588
 51
346.8173570048
  0
ARC
  8
CYAN
 10
-41838.2155407807
 20
18417.9188290809
 40
39.5919405417
 50
346.7954425476
 51
29.8360691531
  0
ARC
  8
CYAN
 10
-41802.2600175126
 20
18438.5402495893
 40
1.8573374075
 50
40.0071256072
 51
209.8207721496
  0
ARC
  8
CYAN
 10
-41833.964830848
 20
18411.9901837322
 40
43.2107060056
 50
320.8062803595
 51
39.9460336108
  0
ARC
  8
CYAN
 10
-41812.2019220538
 20
18394.2441408634
 40
15.1296405695
 50
219.1793694723
 51
320.8080984805
  0
ARC
  8
CYAN
 10
-41790.429705956
 20
18411.9835689357
 40
43.2137410157
 50
140.0379826181
 51
219.1747365118
  0
ARC
  8
CYAN
 10
-41822.1254187934
 20
18438.5452138622
 40
1.8599121745
 50
330.1786998279
 51
140.0750527322
  0
ARC
  8
CYAN
 10
-41786.1759224062
 20
18417.9052855943
 40
39.5933502974
 50
150.1363828041
 51
193.1804795895
  0
ARC
  8
CYAN
 10
-41814.8306231988
 20
18411.1923649552
 40
10.1628361813
 50
193.1677444547
 51
276.3806306077
  0
LINE
  8
CYAN
 10
-41813.701197
 20
18401.092482
 11
-41813.699219
 21
18395.091797
  0
ARC
  8
CYAN
 10
-41735.6171870201
 20
18306.9316403449
 40
1.8772510005
 50
84.8827140007
 51
271.6095292477
  0
LINE
  8
CYAN
 10
-41735.564459
 20
18305.05513
 11
-41726.148437
 21
18305.322266
  0
ARC
  8
CYAN
 10
-41727.6904464803
 20
18318.5260678972
 40
13.2935389486
 50
276.6611287906
 51
333.7412968182
  0
ARC
  8
CYAN
 10
-42128.664315329
 20
18516.2507745498
 40
460.3674734768
 50
333.7512804425
 51
344.6311307353
  0
ARC
  8
CYAN
 10
-41682.1651776017
 20
18393.5253188146
 40
2.6908570576
 50
22.7746212871
 51
164.6297334012
  0
ARC
  8
CYAN
 10
-41387.56618532
 20
18464.1934135474
 40
300.3010590001
 50
193.4063359401
 51
205.5594492999
  0
ARC
  8
CYAN
 10
-41651.0954421732
 20
18338.1613657782
 40
8.1850781555
 50
205.5643013027
 51
263.3117933705
  0
ARC
  8
CYAN
 10
-41651.5397496867
 20
18334.3725173959
 40
4.3702673829
 50
263.3119331639
 51
351.8895470815
  0
ARC
  8
CYAN
 10
-41642.9001352319
 20
18333.1391655801
 40
4.356937161
 50
89.4883184402
 51
171.8616288456
  0
LINE
  8
CYAN
 10
-41642.861226
 20
18337.495929
 11
-41638.488281
 21
18337.496094
  0
ARC
  8
CYAN
 10
-41638.4892569775
 20
18340.4970698828
 40
3.0009760415
 50
270.0186337342
 51
0.0482486918
  0
LINE
  8
CYAN
 10
-41635.488282
 20
18340.499597
 11
-41635.488281
 21
18344.09375
  0
LINE
  8
CYAN
 10
-41635.488281
 20
18344.09375
 11
-41642.851562
 21
18344.09375
  0
LINE
  8
CYAN
 10
-41642.851562
 20
18344.09375
 11
-41642.855469
 21
18347.09375
  0
LINE
  8
CYAN
 10
-41642.855469
 20
18347.09375
 11
-41635.492187
 21
18347.09375
  0
LINE
  8
CYAN
 10
-41635.492187
 20
18347.09375
 11
-41635.488281
 21
18349.279297
  0
ARC
  8
CYAN
 10
-41638.4902327302
 20
18349.2773452721
 40
3.0019523647
 50
0.0372510181
 51
90.0373186176
  0
LINE
  8
CYAN
 10
-41638.492188
 20
18352.279297
 11
-41647.792969
 21
18352.277344
  0
ARC
  8
CYAN
 10
-41647.4903107808
 20
18363.1296391762
 40
10.8565147533
 50
205.5376972204
 51
268.4024996997
  0
ARC
  8
CYAN
 10
-41255.6259313717
 20
18550.4555683184
 40
445.1935905155
 50
198.6668119447
 51
205.5492666153
  0
ARC
  8
CYAN
 10
-41682.3468926699
 20
18406.2929119131
 40
5.2213852486
 50
18.6774011683
 51
152.7685875009
  0
ARC
  8
CYAN
 10
-42188.2874309695
 20
18531.9759303925
 40
516.237256183
 50
335.1918016194
 51
346.1824071679
  0
ARC
  8
CYAN
 10
-41729.7960243568
 20
18320.2541700516
 40
11.2236006431
 50
288.2650346539
 51
334.2157335794
  0
LINE
  8
CYAN
 10
-41726.278402
 20
18309.596049
 11
-41735.449746
 21
18308.801409
  0
ARC
  8
CYAN
 10
-41735.6250000191
 20
18254.4492183755
 40
1.8772510591
 50
84.8826835461
 51
271.6095597024
  0
LINE
  8
CYAN
 10
-41735.572271
 20
18252.572708
 11
-41726.152344
 21
18252.839844
  0
ARC
  8
CYAN
 10
-41727.6986479715
 20
18266.0433719861
 40
13.2937657288
 50
276.6796499306
 51
333.7431001975
  0
ARC
  8
CYAN
 10
-42128.6616567041
 20
18463.7856252624
 40
460.3657208351
 50
333.7487761205
 51
344.6288413303
  0
ARC
  8
CYAN
 10
-41682.171002211
 20
18341.0430255174
 40
2.6889739494
 50
22.7884936896
 51
164.6215475494
  0
ARC
  8
CYAN
 10
-41387.5740004207
 20
18411.7109974858
 40
300.3010583335
 50
193.4063371351
 51
205.5594504052
  0
ARC
  8
CYAN
 10
-41651.1032537114
 20
18285.6789434485
 40
8.1850779983
 50
205.5642915108
 51
263.3117829387
  0
ARC
  8
CYAN
 10
-41651.5439153438
 20
18281.889896786
 40
4.3704964288
 50
263.2641398345
 51
351.8926049946
  0
ARC
  8
CYAN
 10
-41642.9057210753
 20
18280.6586579535
 40
4.3550035437
 50
89.517380358
 51
171.8834326437
  0
LINE
  8
CYAN
 10
-41642.869038
 20
18285.013507
 11
-41638.496094
 21
18285.013672
  0
ARC
  8
CYAN
 10
-41638.4970694779
 20
18288.014648383
 40
3.0009765415
 50
270.0186241934
 51
0.0482391339
  0
LINE
  8
CYAN
 10
-41635.496094
 20
18288.017175
 11
-41635.496094
 21
18291.611328
  0
LINE
  8
CYAN
 10
-41635.496094
 20
18291.611328
 11
-41642.855469
 21
18291.611328
  0
LINE
  8
CYAN
 10
-41642.855469
 20
18291.611328
 11
-41642.859375
 21
18294.611328
  0
LINE
  8
CYAN
 10
-41642.859375
 20
18294.611328
 11
-41635.5
 21
18294.611328
  0
LINE
  8
CYAN
 10
-41635.5
 20
18294.611328
 11
-41635.496094
 21
18296.796875
  0
ARC
  8
CYAN
 10
-41638.496094
 20
18296.796875
 40
3.0
 50
0.0
 51
90.0
  0
LINE
  8
CYAN
 10
-41638.496094
 20
18299.796875
 11
-41647.800781
 21
18299.794922
  0
ARC
  8
CYAN
 10
-41647.4981230778
 20
18310.6472167195
 40
10.8565142885
 50
205.537695721
 51
268.4025011991
  0
ARC
  8
CYAN
 10
-41255.6337432256
 20
18497.9731435001
 40
445.1935894317
 50
198.6668114732
 51
205.5492662799
  0
ARC
  8
CYAN
 10
-41682.3550434467
 20
18353.8124680879
 40
5.2210733911
 50
18.6556558563
 51
152.7671369949
  0
ARC
  8
CYAN
 10
-42188.2960508927
 20
18479.4912056575
 40
516.2370233686
 50
335.1920712324
 51
346.1828872212
  0
ARC
  8
CYAN
 10
-41729.8033189134
 20
18267.7687780849
 40
11.221843097
 50
288.2862166054
 51
334.2282385107
  0
LINE
  8
CYAN
 10
-41726.282308
 20
18257.113627
 11
-41735.457558
 21
18256.318987
  0
ARC
  8
CYAN
 10
-41736.5703119895
 20
18202.859375344
 40
1.8772509987
 50
84.8827149334
 51
271.6095283151
  0
LINE
  8
CYAN
 10
-41736.517584
 20
18200.982865
 11
-41727.101562
 21
18201.248047
  0
ARC
  8
CYAN
 10
-41728.6495248528
 20
18214.452357076
 40
13.2947355588
 50
276.6863585604
 51
333.750788537
  0
ARC
  8
CYAN
 10
-42129.6108755779
 20
18412.1957815945
 40
460.3657217657
 50
333.7487761316
 51
344.6288413193
  0
ARC
  8
CYAN
 10
-41683.1202207019
 20
18289.4531815504
 40
2.6889734673
 50
22.7884972427
 51
164.6215454533
  0
ARC
  8
CYAN
 10
-41388.5252984148
 20
18360.138072493
 40
300.3029592341
 50
193.4095691718
 51
205.5628552045
  0
ARC
  8
CYAN
 10
-41652.0495040639
 20
18234.0869775304
 40
8.1833168924
 50
205.5537213208
 51
263.2894089939
  0
ARC
  8
CYAN
 10
-41652.4920338298
 20
18230.298945803
 40
4.3695263397
 50
263.2481063149
 51
351.8795872704
  0
ARC
  8
CYAN
 10
-41643.8549400753
 20
18229.0668609535
 40
4.3550035437
 50
89.5173803585
 51
171.8834326438
  0
LINE
  8
CYAN
 10
-41643.818257
 20
18233.42171
 11
-41639.441406
 21
18233.423828
  0
ARC
  8
CYAN
 10
-41639.4423819775
 20
18236.4248038828
 40
3.0009760415
 50
270.0186337344
 51
0.0482486917
  0
LINE
  8
CYAN
 10
-41636.441407
 20
18236.427331
 11
-41636.445312
 21
18240.021484
  0
LINE
  8
CYAN
 10
-41636.445312
 20
18240.021484
 11
-41643.804687
 21
18240.021484
  0
LINE
  8
CYAN
 10
-41643.804687
 20
18240.021484
 11
-41643.808594
 21
18243.021484
  0
LINE
  8
CYAN
 10
-41643.808594
 20
18243.021484
 11
-41636.449219
 21
18243.021484
  0
LINE
  8
CYAN
 10
-41636.449219
 20
18243.021484
 11
-41636.445312
 21
18245.205078
  0
ARC
  8
CYAN
 10
-41639.445312
 20
18245.205078
 40
3.0
 50
0.0
 51
90.0000190982
  0
LINE
  8
CYAN
 10
-41639.445313
 20
18248.205078
 11
-41648.746094
 21
18248.203125
  0
ARC
  8
CYAN
 10
-41648.4418663766
 20
18259.0563531198
 40
10.8574911958
 50
205.5292698575
 51
268.3943583067
  0
ARC
  8
CYAN
 10
-41256.5940102466
 20
18446.4104951507
 40
445.1918279029
 50
198.6705825008
 51
205.5532541231
  0
ARC
  8
CYAN
 10
-41683.303923978
 20
18302.2206459362
 40
5.2213858532
 50
18.6774102413
 51
152.7685912005
  0
ARC
  8
CYAN
 10
-42189.2444629209
 20
18427.903661675
 40
516.2372554868
 50
335.1918020382
 51
346.1824074595
  0
ARC
  8
CYAN
 10
-41730.7533559653
 20
18216.1762636534
 40
11.2214186151
 50
288.2913319575
 51
334.2423379816
  0
LINE
  8
CYAN
 10
-41727.231527
 20
18205.52183
 11
-41736.402871
 21
18204.729144
  0
LINE
  8
CYAN
 10
-42134.535156
 20
18233.818359
 11
-42143.949219
 21
18233.492187
  0
ARC
  8
CYAN
 10
-42144.0156853855
 20
18235.3704752379
 40
1.8794638824
 50
85.2832094814
 51
272.0266617764
  0
LINE
  8
CYAN
 10
-42143.861136
 20
18237.243574
 11
-42134.691406
 21
18238.087891
  0
ARC
  8
CYAN
 10
-42138.2852787814
 20
18248.7210245996
 40
11.2240568296
 50
288.6746421142
 51
334.6442374553
  0
ARC
  8
CYAN
 10
-43893.4192093769
 20
18379.0783183289
 40
1770.4437879804
 50
355.621515168
 51
0.0745984095
  0
ARC
  8
CYAN
 10
-42117.8760857451
 20
18381.8277422377
 40
5.1201521542
 50
33.8601825864
 51
184.9784057525
  0
ARC
  8
CYAN
 10
-40781.9142322972
 20
19278.6638095248
 40
1603.9506995826
 50
213.873648926
 51
218.1653960924
  0
ARC
  8
CYAN
 10
-42033.2245608101
 20
18292.2746570495
 40
10.856526464
 50
205.9224595844
 51
268.7976337995
  0
LINE
  8
CYAN
 10
-42033.452371
 20
18281.420521
 11
-42024.152344
 21
18281.476562
  0
ARC
  8
CYAN
 10
-42024.1348082438
 20
18278.4746294841
 40
3.0019837329
 50
0.3222781947
 51
90.3346888661
  0
LINE
  8
CYAN
 10
-42021.132872
 20
18278.491515
 11
-42021.117187
 21
18276.308594
  0
LINE
  8
CYAN
 10
-42021.117187
 20
18276.308594
 11
-42031.527344
 21
18276.308594
  0
LINE
  8
CYAN
 10
-42031.527344
 20
18276.308594
 11
-42031.503906
 21
18273.308594
  0
LINE
  8
CYAN
 10
-42031.503906
 20
18273.308594
 11
-42021.101562
 21
18273.310547
  0
LINE
  8
CYAN
 10
-42021.101562
 20
18273.310547
 11
-42021.078125
 21
18269.716797
  0
ARC
  8
CYAN
 10
-42024.0761180298
 20
18269.6933841043
 40
2.9980844501
 50
270.4168489226
 51
0.4474436152
  0
LINE
  8
CYAN
 10
-42024.054306
 20
18266.695379
 11
-42036.621094
 21
18267.712891
  0
ARC
  8
CYAN
 10
-42036.6327541432
 20
18263.357472388
 40
4.35543422
 50
89.8466105198
 51
172.2595288643
  0
ARC
  8
CYAN
 10
-42047.7937259743
 20
18266.2344820008
 40
7.2182392358
 50
182.4088146822
 51
341.4998988867
  0
ARC
  8
CYAN
 10
-42113.6161511297
 20
18263.4671733834
 40
58.6623318807
 50
2.40724094
 51
30.3045281119
  0
ARC
  8
CYAN
 10
-43045.39922722
 20
17718.987308998
 40
1137.8648259257
 50
30.2997898801
 51
34.9483541322
  0
ARC
  8
CYAN
 10
-42115.2010584429
 20
18369.7403817942
 40
2.6911446355
 50
23.1719182172
 51
165.009417676
  0
ARC
  8
CYAN
 10
-42799.5026352517
 20
18339.4436125578
 40
682.4061814066
 50
351.7230351479
 51
2.6030995177
  0
ARC
  8
CYAN
 10
-42136.1629241333
 20
18247.0116923192
 40
13.293369519
 50
277.0334986648
 51
334.1019752686
  0
ARC
  8
CYAN
 10
-41892.5390600269
 20
17595.9492191449
 40
665.0664060594
 50
93.3020917963
 51
95.0968879449
  0
ARC
  8
CYAN
 10
-41950.9765596596
 20
18251.1102450036
 40
7.3043587555
 50
95.0827889511
 51
264.6089468925
  0
ARC
  8
CYAN
 10
-41952.1601470307
 20
18238.5604603323
 40
5.3011152582
 50
287.2002327863
 51
84.6169030651
  0
ARC
  8
CYAN
 10
-41948.3554161134
 20
18226.2534466507
 40
7.5805996488
 50
107.1642690302
 51
255.3475546168
  0
ARC
  8
CYAN
 10
-41961.1957392201
 20
18177.117716044
 40
43.205165354
 50
2.4879434662
 51
75.3560420391
  0
ARC
  8
CYAN
 10
-41908.9145440623
 20
18179.388550465
 40
9.1253234555
 50
182.4829901004
 51
25.817463855
  0
ARC
  8
CYAN
 10
-41885.6841749905
 20
18190.6304671861
 40
16.6822479773
 50
172.9479703367
 51
205.8272982624
  0
ARC
  8
CYAN
 10
-41993.7932295787
 20
18204.7455682777
 40
92.3448199672
 50
352.4914929525
 51
16.3221036233
  0
ARC
  8
CYAN
 10
-41914.0199248775
 20
18229.5258886737
 40
8.9270038139
 50
7.5438903078
 51
84.1746786266
  0
LINE
  8
CYAN
 10
-41913.11387
 20
18238.406793
 11
-41917.480469
 21
18238.583984
  0
ARC
  8
CYAN
 10
-41916.2614631244
 20
18248.693021539
 40
10.1822696532
 50
171.2174152596
 51
263.1241442862
  0
LINE
  8
CYAN
 10
-41926.324344
 20
18250.247706
 11
-41937.871094
 21
18250.246094
  0
LINE
  8
CYAN
 10
-41937.871094
 20
18250.246094
 11
-41937.871094
 21
18253.248047
  0
LINE
  8
CYAN
 10
-41937.871094
 20
18253.248047
 11
-41926.320312
 21
18253.248047
  0
ARC
  8
CYAN
 10
-41930.5782253417
 20
18255.2247567297
 40
4.6943804044
 50
335.0972084152
 51
93.2846965129
  0
ARC
  8
CYAN
 10
-41969.7773391984
 20
17743.9472663526
 40
665.066406015
 50
93.3020920407
 51
95.0968881034
  0
ARC
  8
CYAN
 10
-42028.2148416595
 20
18399.1082920063
 40
7.3043586642
 50
95.0827811401
 51
264.6089547035
  0
ARC
  8
CYAN
 10
-42029.3984280307
 20
18386.5585073323
 40
5.3011152582
 50
287.2002327866
 51
84.6169030649
  0
ARC
  8
CYAN
 10
-42025.5898252994
 20
18374.2511101852
 40
7.5821095036
 50
107.1913689545
 51
255.3508047251
  0
ARC
  8
CYAN
 10
-42038.4345437132
 20
18325.114457211
 40
43.2056592668
 50
2.4870559781
 51
75.3501418578
  0
ARC
  8
CYAN
 10
-41986.1528680371
 20
18327.3865868234
 40
9.1253658751
 50
182.4951856277
 51
25.8174092241
  0
ARC
  8
CYAN
 10
-41962.9175374062
 20
18338.6223828176
 40
16.6840067182
 50
172.9275003606
 51
205.8009850024
  0
ARC
  8
CYAN
 10
-42071.0276520811
 20
18352.7422784641
 40
92.3446923859
 50
352.4923191253
 51
16.3217284325
  0
ARC
  8
CYAN
 10
-41991.2544485396
 20
18377.5240791153
 40
8.9268762031
 50
7.5304258166
 51
84.1736359461
  0
LINE
  8
CYAN
 10
-41990.348245
 20
18386.40484
 11
-41994.71875
 21
18386.582031
  0
ARC
  8
CYAN
 10
-41993.4964562255
 20
18396.6899308513
 40
10.1815343379
 50
171.2214184802
 51
263.105008499
  0
LINE
  8
CYAN
 10
-42003.558719
 20
18398.2438
 11
-42015.105469
 21
18398.242187
  0
LINE
  8
CYAN
 10
-42015.105469
 20
18398.242187
 11
-42015.105469
 21
18401.244141
  0
LINE
  8
CYAN
 10
-42015.105469
 20
18401.244141
 11
-42003.558594
 21
18401.244141
  0
ARC
  8
CYAN
 10
-42007.813564086
 20
18403.2242232196
 40
4.6931328587
 50
335.0447332377
 51
93.3215629604
  0
ARC
  8
CYAN
 10
-41769.8593757966
 20
18144.5214841018
 40
78.3832248407
 50
72.6145614074
 51
92.8263340174
  0
ARC
  8
CYAN
 10
-41773.9179034733
 20
18226.6990860745
 40
3.894536181
 50
139.6341751405
 51
272.8485385411
  0
LINE
  8
CYAN
 10
-41776.885247
 20
18229.221443
 11
-41760.636719
 21
18229.226562
  0
LINE
  8
CYAN
 10
-41760.636719
 20
18229.226562
 11
-41760.636719
 21
18232.226562
  0
LINE
  8
CYAN
 10
-41760.636719
 20
18232.226562
 11
-41776.886719
 21
18232.222656
  0
ARC
  8
CYAN
 10
-41773.3720447747
 20
18235.2044130894
 40
4.6091008071
 50
99.769529461
 51
220.3103964474
  0
ARC
  8
CYAN
 10
-41774.905820974
 20
18244.0926441048
 40
4.4104962795
 50
279.8127959581
 51
26.4662859659
  0
ARC
  8
CYAN
 10
-41766.0155015524
 20
18248.5197140033
 40
5.52110621
 50
85.5195537829
 51
206.4760393641
  0
ARC
  8
CYAN
 10
-41768.5868768597
 20
18215.6099919514
 40
38.5311314865
 50
27.9053790633
 51
85.5304874334
  0
ARC
  8
CYAN
 10
-41743.4308736273
 20
18228.9302134809
 40
10.0661919031
 50
252.6147423065
 51
27.9165483005
  0
ENDSEC
  0
EOF
